<?xml version="1.0" standalone="no"?>
<!DOCTYPE svg PUBLIC "-//W3C//DTD SVG 20010904//EN"
 "http://www.w3.org/TR/2001/REC-SVG-20010904/DTD/svg10.dtd">
<svg version="1.0" xmlns="http://www.w3.org/2000/svg"
 width="225.000000pt" height="225.000000pt" viewBox="0 0 225.000000 225.000000"
 preserveAspectRatio="xMidYMid meet">

<g transform="translate(0.000000,225.000000) scale(0.100000,-0.100000)"
fill="#000000" stroke="none">
<path d="M908 1970 c-339 -86 -595 -352 -664 -689 -25 -125 -16 -317 21 -431
81 -256 267 -462 504 -560 129 -53 194 -64 351 -64 128 1 156 4 233 27 159 49
278 120 390 234 153 156 239 347 253 563 27 410 -227 777 -626 906 -74 23
-105 27 -235 30 -124 3 -163 0 -227 -16z m-60 -296 c20 -14 22 -23 22 -106 0
-102 -12 -128 -61 -128 -44 0 -59 31 -59 125 0 68 3 85 20 103 24 26 47 28 78
6z m620 0 c20 -14 22 -23 22 -106 0 -102 -12 -128 -61 -128 -44 0 -59 32 -59
124 0 68 3 83 22 103 25 27 45 29 76 7z m-748 -146 c0 -60 30 -105 73 -113 69
-13 117 37 117 121 l0 34 214 0 214 0 4 -55 c5 -63 26 -92 73 -101 67 -12 115
39 115 122 l0 34 51 0 c28 0 66 -7 85 -16 65 -31 64 -26 64 -515 l0 -441 -34
-34 -34 -34 -542 0 -542 0 -33 33 c-24 24 -35 46 -40 78 -3 24 -5 224 -3 444
3 377 4 402 23 429 25 38 68 55 138 56 l57 0 0 -42z"/>
<path d="M610 1305 c0 -13 63 -15 510 -15 447 0 510 2 510 15 0 13 -63 15
-510 15 -447 0 -510 -2 -510 -15z"/>
<path d="M612 943 l3 -318 505 0 505 0 3 318 2 317 -510 0 -510 0 2 -317z"/>
</g>
</svg>
